<svg width="218" height="86" viewBox="0 0 218 86" fill="none" xmlns="http://www.w3.org/2000/svg">
<path d="M6.86614 83.8607V33.5485C6.86614 33.1422 6.40731 32.9056 6.07628 33.1411L0.210141 37.3147C0.0782994 37.4085 0 37.5603 0 37.7221V83.8607C0 84.1369 0.223858 84.3607 0.500001 84.3607H6.36614C6.64228 84.3607 6.86614 84.1369 6.86614 83.8607Z" fill="white"/>
<path d="M9.15723 84.0791V29.1043C9.15723 28.9672 9.21359 28.836 9.31311 28.7416L18.6123 19.9201C18.9309 19.6179 19.4564 19.8437 19.4564 20.2829V84.0791C19.4564 84.3553 19.2326 84.5791 18.9564 84.5791H9.65723C9.38108 84.5791 9.15723 84.3553 9.15723 84.0791Z" fill="white"/>
<path d="M22 84.286V14.6046C22 14.4984 22.0338 14.395 22.0966 14.3093L25.3879 9.81322C25.6735 9.42313 26.2913 9.62512 26.2913 10.1086V84.286C26.2913 84.5621 26.0675 84.786 25.7913 84.786H22.5C22.2239 84.786 22 84.5621 22 84.286Z" fill="white"/>
<path d="M31 84.1251V3.31669C31 2.81481 31.6568 2.62581 31.9235 3.05093L39.5062 15.1354C39.5562 15.215 39.5827 15.3071 39.5827 15.4011V84.1251C39.5827 84.4012 39.3588 84.6251 39.0827 84.6251H31.5C31.2239 84.6251 31 84.4012 31 84.1251Z" fill="white"/>
<path d="M45 84.5159V19.7829C45 19.3379 45.5376 19.1146 45.8529 19.4286L51.719 25.2716C51.8132 25.3655 51.8661 25.4929 51.8661 25.6259V84.5159C51.8661 84.792 51.6423 85.0159 51.3661 85.0159H45.5C45.2239 85.0159 45 84.792 45 84.5159Z" fill="white"/>
<path d="M54.6455 84.0791V27.8676C54.6455 27.4687 55.0898 27.2304 55.4221 27.4511L64.7213 33.6261C64.8608 33.7188 64.9447 33.8751 64.9447 34.0426V84.0791C64.9447 84.3552 64.7209 84.5791 64.4447 84.5791H55.1455C54.8694 84.5791 54.6455 84.3552 54.6455 84.0791Z" fill="white"/>
<path d="M67.5195 84.0791V35.6114C67.5195 35.2279 67.9335 34.9871 68.2669 35.1769L74.133 38.5157C74.2892 38.6046 74.3857 38.7705 74.3857 38.9503V84.0791C74.3857 84.3552 74.1618 84.5791 73.8857 84.5791H68.0195C67.7434 84.5791 67.5195 84.3552 67.5195 84.0791Z" fill="white"/>
<path d="M78 84.0216V40.0791C78 39.803 78.2239 39.5791 78.5 39.5791H86.9409C87.2171 39.5791 87.4409 39.803 87.4409 40.0791V84.0216C87.4409 84.2978 87.2171 84.5216 86.9409 84.5216H78.5C78.2239 84.5216 78 84.2978 78 84.0216Z" fill="white"/>
<path d="M90.6934 84.0791V40.1365C90.6934 39.8604 90.9172 39.6365 91.1934 39.6365H97.0595C97.3356 39.6365 97.5595 39.8604 97.5595 40.1365V84.0791C97.5595 84.3552 97.3356 84.5791 97.0595 84.5791H91.1934C90.9172 84.5791 90.6934 84.3552 90.6934 84.0791Z" fill="white"/>
<path d="M100.992 84.0791V40.1365C100.992 39.8604 101.216 39.6365 101.492 39.6365H108.217C108.493 39.6365 108.717 39.8604 108.717 40.1365V84.0791C108.717 84.3552 108.493 84.5791 108.217 84.5791H101.492C101.216 84.5791 100.992 84.3552 100.992 84.0791Z" fill="white"/>
<path d="M112 84.0757V38.721C112 38.5005 112.136 38.3057 112.335 38.2403L120.382 35.6021C120.689 35.5015 121 35.7436 121 36.0828V84.0757C121 84.3537 120.787 84.5791 120.523 84.5791H112.477C112.213 84.5791 112 84.3537 112 84.0757Z" fill="white"/>
<path d="M126 84.0791V35.0857C126 34.8834 126.122 34.7011 126.309 34.6237L134.75 31.1296C135.079 30.9933 135.441 31.2353 135.441 31.5916V84.0791C135.441 84.3552 135.217 84.5791 134.941 84.5791H126.5C126.224 84.5791 126 84.3552 126 84.0791Z" fill="white"/>
<path d="M138.874 84.0791V29.1916C138.874 29.0058 138.977 28.8353 139.141 28.7489L149.299 23.4123C149.632 23.2373 150.031 23.4788 150.031 23.8549V84.0791C150.031 84.3552 149.808 84.5791 149.531 84.5791H139.374C139.098 84.5791 138.874 84.3552 138.874 84.0791Z" fill="white"/>
<path d="M153.465 84.0791V20.3717C153.465 20.2003 153.552 20.0408 153.697 19.9492L160.422 15.6965C160.755 15.486 161.189 15.7252 161.189 16.1191V84.0791C161.189 84.3552 160.965 84.5791 160.689 84.5791H153.965C153.688 84.5791 153.465 84.3552 153.465 84.0791Z" fill="white"/>
<path d="M164.622 84.0791V12.5355C164.622 12.3752 164.699 12.2246 164.829 12.1305L173.27 6.01586C173.6 5.77639 174.063 6.01257 174.063 6.42078V84.0791C174.063 84.3552 173.839 84.5791 173.563 84.5791H165.122C164.846 84.5791 164.622 84.3552 164.622 84.0791Z" fill="white"/>
<path d="M176.638 84.0791V3.75838C176.638 3.58921 176.723 3.4315 176.865 3.33925L181.873 0.0816961C182.206 -0.134667 182.646 0.104033 182.646 0.500829V84.0791C182.646 84.3552 182.422 84.5791 182.146 84.5791H177.138C176.862 84.5791 176.638 84.3552 176.638 84.0791Z" fill="white"/>
<path d="M185.22 84.0791V7.02224C185.22 6.53386 185.849 6.33517 186.13 6.73474L191.996 15.0819C192.055 15.1661 192.087 15.2665 192.087 15.3694V84.0791C192.087 84.3552 191.863 84.5791 191.587 84.5791H185.72C185.444 84.5791 185.22 84.3552 185.22 84.0791Z" fill="white"/>
<path d="M195.52 84.0791V19.2528C195.52 18.8219 196.028 18.5928 196.351 18.8785L203.076 24.8322C203.183 24.9271 203.244 25.0634 203.244 25.2065V84.0791C203.244 84.3552 203.02 84.5791 202.744 84.5791H196.02C195.744 84.5791 195.52 84.3552 195.52 84.0791Z" fill="white"/>
<path d="M205.819 84.0791V28.9196C205.819 28.5062 206.292 28.2714 206.621 28.5213L210.771 31.6704C210.895 31.765 210.969 31.9123 210.969 32.0687V84.0791C210.969 84.3552 210.745 84.5791 210.469 84.5791H206.319C206.043 84.5791 205.819 84.3552 205.819 84.0791Z" fill="white"/>
<path d="M213.543 84.0791V33.5746C213.543 33.2108 213.919 32.9688 214.251 33.1195L217.542 34.6182C217.72 34.6994 217.835 34.8773 217.835 35.0732V84.0791C217.835 84.3552 217.611 84.5791 217.335 84.5791H214.043C213.767 84.5791 213.543 84.3552 213.543 84.0791Z" fill="white"/>
<path d="M49.31 75.09C48.74 75.09 48.155 75.075 47.555 75.045C46.955 75.015 46.34 74.985 45.71 74.955C45.71 73.575 45.665 72.225 45.575 70.905C45.515 69.585 45.38 68.325 45.17 67.125C44.99 65.925 44.69 64.83 44.27 63.84C43.88 62.82 43.37 61.95 42.74 61.23C42.41 60.84 42.02 60.54 41.57 60.33C41.15 60.09 40.73 59.955 40.31 59.925V59.16L46.295 43.815C46.895 43.665 47.48 43.575 48.05 43.545C48.62 43.485 49.115 43.455 49.535 43.455C51.305 43.455 52.025 43.875 51.695 44.715L46.565 56.955C48.215 58.485 49.43 60.72 50.21 63.66C51.02 66.6 51.425 70.065 51.425 74.055C51.425 74.445 51.29 74.715 51.02 74.865C50.78 75.015 50.21 75.09 49.31 75.09ZM36.26 75V44.4C36.26 44.1 36.335 43.89 36.485 43.77C36.635 43.65 37.055 43.575 37.745 43.545C38.465 43.515 39.68 43.5 41.39 43.5V74.1C41.39 74.4 41.315 74.61 41.165 74.73C41.045 74.85 40.625 74.925 39.905 74.955C39.185 74.985 37.97 75 36.26 75Z" fill="black"/>
<path d="M70.35 73V42.76C70.35 42.34 70.425 42.04 70.575 41.86C70.725 41.68 71.145 41.575 71.835 41.545C72.555 41.515 73.74 41.5 75.39 41.5V68.275H81.735V72.1C81.735 72.46 81.645 72.7 81.465 72.82C81.315 72.94 81.105 73 80.835 73H70.35Z" fill="black"/>
<path d="M96.31 74.09C95.74 74.09 95.155 74.075 94.555 74.045C93.955 74.015 93.34 73.985 92.71 73.955C92.71 72.575 92.665 71.225 92.575 69.905C92.515 68.585 92.38 67.325 92.17 66.125C91.99 64.925 91.69 63.83 91.27 62.84C90.88 61.82 90.37 60.95 89.74 60.23C89.41 59.84 89.02 59.54 88.57 59.33C88.15 59.09 87.73 58.955 87.31 58.925V58.16L93.295 42.815C93.895 42.665 94.48 42.575 95.05 42.545C95.62 42.485 96.115 42.455 96.535 42.455C98.305 42.455 99.025 42.875 98.695 43.715L93.565 55.955C95.215 57.485 96.43 59.72 97.21 62.66C98.02 65.6 98.425 69.065 98.425 73.055C98.425 73.445 98.29 73.715 98.02 73.865C97.78 74.015 97.21 74.09 96.31 74.09ZM83.26 74V43.4C83.26 43.1 83.335 42.89 83.485 42.77C83.635 42.65 84.055 42.575 84.745 42.545C85.465 42.515 86.68 42.5 88.39 42.5V73.1C88.39 73.4 88.315 73.61 88.165 73.73C88.045 73.85 87.625 73.925 86.905 73.955C86.185 73.985 84.97 74 83.26 74Z" fill="black"/>
<path d="M104.285 74.09C103.955 74.09 103.49 74.075 102.89 74.045C102.29 74.015 101.69 73.97 101.09 73.91L108.605 43.355C108.725 42.725 109.4 42.41 110.63 42.41C111.05 42.41 111.47 42.425 111.89 42.455C112.34 42.485 112.715 42.53 113.015 42.59L120.53 73.19C120.59 73.49 120.485 73.715 120.215 73.865C119.945 74.015 119.3 74.09 118.28 74.09C117.95 74.09 117.545 74.075 117.065 74.045C116.585 74.045 116.015 74.03 115.355 74L112.07 58.115C111.92 57.305 111.77 56.435 111.62 55.505C111.47 54.545 111.335 53.555 111.215 52.535C111.095 51.515 110.99 50.54 110.9 49.61C110.81 50.54 110.69 51.515 110.54 52.535C110.42 53.555 110.285 54.545 110.135 55.505C110.015 56.435 109.865 57.305 109.685 58.115L106.58 73.145C106.52 73.445 106.37 73.685 106.13 73.865C105.92 74.015 105.305 74.09 104.285 74.09ZM106.22 66.845V62.3H116.39V66.845H106.22Z" fill="black"/>
<path d="M141 61V55.3333C141 54.597 140.403 54 139.667 54C138.194 54 137 55.1939 137 56.6667V61C137 62.1046 137.895 63 139 63C140.105 63 141 62.1046 141 61Z" fill="black" stroke="black" stroke-width="0.2"/>
<path d="M111.5 61.5583V58.6727C111.5 58.271 111.757 57.9143 112.138 57.7873C112.618 57.6274 113.138 57.8785 113.31 58.3537L114.297 61.0656C114.638 62.0059 113.942 63 112.942 63C112.145 63 111.5 62.3545 111.5 61.5583Z" fill="black" stroke="black" stroke-width="0.2"/>
<path d="M121.94 74V42.95C121.94 42.95 121.97 42.95 122.03 42.95C122.12 42.95 122.39 42.95 122.84 42.95H126.08C126.53 42.95 126.785 42.95 126.845 42.95C126.935 42.95 126.98 42.95 126.98 42.95V73.1C126.98 73.4 126.905 73.61 126.755 73.73C126.605 73.85 126.17 73.925 125.45 73.955C124.76 73.985 123.59 74 121.94 74ZM116.45 47.225V43.4C116.45 42.8 116.75 42.5 117.35 42.5H132.65V46.325C132.65 46.685 132.575 46.925 132.425 47.045C132.305 47.165 132.08 47.225 131.75 47.225H116.45Z" fill="black"/>
<path d="M131.285 74.09C130.955 74.09 130.49 74.075 129.89 74.045C129.29 74.015 128.69 73.97 128.09 73.91L135.605 43.355C135.725 42.725 136.4 42.41 137.63 42.41C138.05 42.41 138.47 42.425 138.89 42.455C139.34 42.485 139.715 42.53 140.015 42.59L147.53 73.19C147.59 73.49 147.485 73.715 147.215 73.865C146.945 74.015 146.3 74.09 145.28 74.09C144.95 74.09 144.545 74.075 144.065 74.045C143.585 74.045 143.015 74.03 142.355 74L139.07 58.115C138.92 57.305 138.77 56.435 138.62 55.505C138.47 54.545 138.335 53.555 138.215 52.535C138.095 51.515 137.99 50.54 137.9 49.61C137.81 50.54 137.69 51.515 137.54 52.535C137.42 53.555 137.285 54.545 137.135 55.505C137.015 56.435 136.865 57.305 136.685 58.115L133.58 73.145C133.52 73.445 133.37 73.685 133.13 73.865C132.92 74.015 132.305 74.09 131.285 74.09ZM133.22 66.845V62.3H143.39V66.845H133.22Z" fill="black"/>
<path d="M60 74.45C58.53 74.45 57.27 74.225 56.22 73.775C55.2 73.295 54.375 72.455 53.745 71.255C53.115 70.055 52.65 68.39 52.35 66.26C52.05 64.13 51.9 61.4 51.9 58.07C51.9 53.99 52.215 50.795 52.845 48.485C53.475 46.145 54.42 44.495 55.68 43.535C56.97 42.545 58.575 42.05 60.495 42.05C61.965 42.05 63.21 42.305 64.23 42.815C65.25 43.295 66.075 44.135 66.705 45.335C67.335 46.505 67.785 48.11 68.055 50.15C68.355 52.19 68.505 54.77 68.505 57.89C68.505 62.12 68.205 65.435 67.605 67.835C67.005 70.235 66.075 71.945 64.815 72.965C63.585 73.955 61.98 74.45 60 74.45ZM60.27 69.23C61.02 69.23 61.575 68.855 61.935 68.105C62.325 67.355 62.595 66.155 62.745 64.505C62.895 62.855 62.97 60.71 62.97 58.07C62.97 55.46 62.91 53.36 62.79 51.77C62.7 50.18 62.475 49.04 62.115 48.35C61.755 47.63 61.185 47.27 60.405 47.27C59.685 47.27 59.13 47.66 58.74 48.44C58.35 49.19 58.065 50.435 57.885 52.175C57.735 53.915 57.66 56.255 57.66 59.195C57.66 61.535 57.72 63.44 57.84 64.91C57.96 66.38 58.2 67.475 58.56 68.195C58.95 68.885 59.52 69.23 60.27 69.23Z" fill="black"/>
<path d="M158.35 74V43.4C158.35 43.4 158.395 43.25 158.485 42.95C158.575 42.65 158.83 42.5 159.25 42.5H170.05C170.05 43.85 170.035 44.825 170.005 45.425C169.975 46.025 169.9 46.4 169.78 46.55C169.66 46.7 169.45 46.775 169.15 46.775H163.39V73.1C163.39 73.1 163.36 73.25 163.3 73.55C163.27 73.85 163.03 74 162.58 74H158.35ZM158.71 59.24V54.65H168.835C168.835 56.54 168.79 57.785 168.7 58.385C168.64 58.955 168.4 59.24 167.98 59.24H158.71Z" fill="black"/>
<path d="M182.36 65.485L180.245 59.185C180.125 58.825 179.96 58.285 179.75 57.565C179.57 56.815 179.36 55.975 179.12 55.045C178.88 54.115 178.64 53.185 178.4 52.255C178.16 51.295 177.935 50.41 177.725 49.6C177.545 48.79 177.395 48.145 177.275 47.665C177.155 47.155 177.095 46.9 177.095 46.9L179.075 41.5L182.63 52.57C182.87 53.26 183.065 53.89 183.215 54.46C183.365 55.03 183.485 55.51 183.575 55.9C183.665 56.29 183.725 56.59 183.755 56.8C183.815 57.01 183.845 57.115 183.845 57.115C183.845 57.115 183.86 57.01 183.89 56.8C183.92 56.59 183.98 56.29 184.07 55.9C184.16 55.48 184.265 55 184.385 54.46C184.535 53.92 184.715 53.32 184.925 52.66L187.985 42.4L190.325 46.99C190.325 46.99 190.265 47.23 190.145 47.71C190.025 48.19 189.86 48.835 189.65 49.645C189.47 50.425 189.26 51.295 189.02 52.255C188.78 53.185 188.525 54.115 188.255 55.045C188.015 55.945 187.79 56.77 187.58 57.52C187.4 58.24 187.235 58.795 187.085 59.185L184.925 65.17C184.865 65.38 184.7 65.485 184.43 65.485H182.36ZM174.35 73V42.4C174.35 41.95 174.44 41.695 174.62 41.635C174.8 41.545 175.01 41.5 175.25 41.5H179.075L179.345 50.05L177.905 50.995C177.905 50.995 177.935 51.16 177.995 51.49C178.055 51.79 178.13 52.24 178.22 52.84C178.31 53.41 178.4 54.115 178.49 54.955C178.61 55.765 178.715 56.665 178.805 57.655C178.925 58.645 179.015 59.71 179.075 60.85C179.165 61.99 179.21 63.175 179.21 64.405L179.345 72.1C179.345 72.4 179.255 72.61 179.075 72.73C178.895 72.85 178.445 72.925 177.725 72.955C177.035 72.985 175.91 73 174.35 73ZM187.94 73L188.165 64.45C188.195 63.22 188.24 62.05 188.3 60.94C188.39 59.8 188.48 58.735 188.57 57.745C188.69 56.725 188.795 55.81 188.885 55C188.975 54.16 189.065 53.455 189.155 52.885C189.245 52.285 189.32 51.82 189.38 51.49C189.44 51.16 189.47 50.995 189.47 50.995L187.985 49.96V42.4C188.105 42.07 188.21 41.845 188.3 41.725C188.42 41.575 188.615 41.5 188.885 41.5C190.295 41.5 191.285 41.5 191.855 41.5C192.455 41.5 192.815 41.5 192.935 41.5C193.055 41.5 193.115 41.5 193.115 41.5V72.1C193.115 72.4 193.04 72.61 192.89 72.73C192.74 72.85 192.305 72.925 191.585 72.955C190.895 72.985 189.68 73 187.94 73Z" fill="black"/>
</svg>
